<?xml version="1.0" encoding="utf-8"?>
<!-- Generator: Adobe Illustrator 15.1.0, SVG Export Plug-In . SVG Version: 6.00 Build 0)  -->
<!DOCTYPE svg PUBLIC "-//W3C//DTD SVG 1.1//EN" "http://www.w3.org/Graphics/SVG/1.1/DTD/svg11.dtd">
<svg fill="#337ab7" version="1.1" id="Layer_1" xmlns="http://www.w3.org/2000/svg" xmlns:xlink="http://www.w3.org/1999/xlink" x="0px" y="0px"
	 width="100px" height="56.658px" viewBox="-14.643 21.628 100 56.658" enable-background="new -14.643 21.628 100 56.658"
	 xml:space="preserve">
<polygon fill="#337ab7" points="34.488,23.17 29.206,23.17 29.206,22.875 25.128,22.875 25.128,58.818 29.206,58.818 29.206,25.103 34.488,25.103 
	"/>
<polygon fill="#337ab7" points="21.679,43.514 21.679,73.091 -14.643,73.091 -14.643,73.731 1.237,74.784 21.679,74.784 23.553,74.784 
	23.553,73.091 23.553,43.514 "/>
<path fill="#337ab7" d="M77.678,62.929c-4.242,0-7.679,3.445-7.679,7.679c0,4.242,3.437,7.679,7.679,7.679s7.679-3.437,7.679-7.679
	C85.357,66.374,81.92,62.929,77.678,62.929z M77.678,75.047c-2.45,0-4.439-1.989-4.439-4.439s1.989-4.439,4.439-4.439
	s4.432,1.989,4.432,4.439S80.128,75.047,77.678,75.047z"/>
<path fill="#337ab7" d="M34.328,59.756c-5.118,0-9.27,4.144-9.27,9.265c0,5.114,4.147,9.266,9.27,9.266c5.117,0,9.266-4.144,9.266-9.266
	C43.593,63.899,39.445,59.756,34.328,59.756z M34.328,74.068c-2.787,0-5.048-2.261-5.048-5.048c0-2.786,2.261-5.048,5.048-5.048
	s5.048,2.262,5.048,5.048C39.375,71.808,37.115,74.068,34.328,74.068z"/>
<path fill="#337ab7" d="M64.081,49.544c0,0-0.56-8.053-0.56-10.112c0-2.056-2.244-0.938-2.244-0.938l-3.56,8.616c0,0-3.741-0.938-5.985-0.378
	c-2.253,0.563-0.756,3.745-0.756,3.745l0.525,0.563h12.497L64.081,49.544z"/>
<rect fill="#337ab7" x="45.895" y="70.871" width="21.317" height="4.793"/>
<path fill="#337ab7" d="M83.959,54.091c0.189-5.43-5.426-5.804-5.426-5.804l-6.248,0.152l0.164-0.654l-1.217-23.447c0,0-0.938-2.894-3.001-2.701
	c-2.055,0.193-20.594,0-20.594,0s-1.949,0.938-3.354,2.257c-0.189,0.177-0.37,0.362-0.543,0.551
	c-0.017,0.083-0.049,0.177-0.074,0.275c-1.011,3.354-5.101,16.928-6.758,22.111l-0.127-0.045l-2.808,6.367v3.931l-4.308,0.188v1.496
	C45.023,57.272,45.96,70.377,45.96,70.377h0.247h21.276l0.074-0.312c0,0,1.143-9.109,10.416-8.781h6.084L83.959,54.091z
	 M45.583,59.706l-4.119-2.434l0.748-4.867l1.496-0.748l-0.181-2.623l-4.961-1.652l6.482-22.678l22.813-0.317v27.27h-1.693H53.672
	h-3.511c-2.129,1.044-1.784,5.221-1.258,8.156l-1.053-0.033L45.583,59.706z"/>
</svg>
