<svg xmlns="http://www.w3.org/2000/svg" xmlns:xlink="http://www.w3.org/1999/xlink" version="1.1" x="0px" y="0px" width="100px" height="100px" viewBox="0 0 100 100" enable-background="new 0 0 100 100" xml:space="preserve">
<g id="Layer_1">
</g>
<g id="_x3C_Layer_x3E_">
</g>
<g id="TESTS">
	<g>
		<path fill-rule="evenodd" clip-rule="evenodd" d="M47.159,12.637C40.121,36.37,32.855,59.874,26.107,83.895    c-5.957-1.332-11.27-3.304-17.004-4.859c0.319-1.297,0.828-2.409,1.075-3.776c4.574,0.826,8.298,2.502,12.687,3.506    c7.201-21.953,13.469-44.831,20.247-67.207C44.506,11.875,45.664,12.425,47.159,12.637z" fill="#337ab7"/>
	</g>
	<g id="XMLID_1_">
		<g>
			<g>
				<path d="M61.73,56.9c-0.65-0.511-2.16-0.17-3.24-0.271c0,2.521,0,5.04,0,7.561c1.09,0,2.16,0,3.24,0      C61.73,61.76,61.73,59.33,61.73,56.9z M76.85,56.09c0-9.44,0-18.89,0-28.34c-5.949-0.01-12.34-0.93-17.55-0.27      c-8.21,1.04-10.5,8.45-12.68,15.66c0.64,0.83,3.35,3.11,5,5.19c1.439,1.85,2.04,3.56-0.41,3.979C48.11,52.85,47.94,48.33,45,48      c-1.31,5.61-3.07,10.78-4.59,16.19c4.32,0,8.64,0,12.96,0c0.28-3.86-0.61-8.881,0.54-11.881c2.149-1.45,6.63-0.569,9.979-0.81      c-0.17-1.17,0.36-3.04-0.27-3.77c-1.561,1.87-7.74,2.69-9.67,0.54c-0.38-0.42-0.59-0.96-0.58-1.62      c0.07-3.34,3.39-1.77,6.21-2.43c3.439-0.81,4.8-4.72,8.36-5.13c6.359-0.74,6.79,7.99,5.67,13.771      c-0.271,1.38-1.53,2.239-1.351,3.229C73.79,56.09,75.32,56.09,76.85,56.09z M80.9,23.43c0,10.89,0,21.78,0,32.66      c4.68,0,9.359,0,14.029,0c-1.62,11.3,5.311,29.54-8.91,28.07c4.171-18.22-25.21-18.101-20.779,0c-4.94,0-9.891,0-14.84,0      c0.61-10.47-16.18-10.17-15.66,0c-1.34,0-2.7,0-4.04,0c1.97-7.99,5.14-18.74,8.36-29.69c4.34-14.71,5.86-30.36,22.13-31.04      C68.58,23.13,72.98,23.47,80.9,23.43z" fill="#337ab7"/>
			</g>
		</g>
		<g>
			<g>
				<path d="M87.559,84.744c-0.501,0-1.036-0.029-1.591-0.087L85.406,84.6l0.126-0.551c0.852-3.721,0.309-6.935-1.571-9.293      c-1.854-2.327-4.993-3.716-8.397-3.716c-3.42,0-6.557,1.396-8.392,3.734c-1.853,2.359-2.353,5.564-1.446,9.267l0.151,0.619      H49.87l0.031-0.529c0.117-2.014-0.454-3.749-1.653-5.02c-1.314-1.393-3.339-2.191-5.556-2.191c-2.281,0-4.378,0.831-5.755,2.279      c-1.21,1.273-1.797,2.98-1.697,4.936l0.027,0.525h-5.205l0.153-0.62c1.93-7.828,4.955-18.113,8.157-29.002l0.209-0.709      c0.609-2.065,1.169-4.174,1.711-6.214C43.65,35.472,46.822,23.53,61.17,22.931c2.105-0.085,4.095-0.125,6.26-0.125      c1.848,0,3.609,0.029,5.46,0.06c2.042,0.033,4.193,0.069,6.689,0.069l1.821-0.006V55.59h14.106l-0.082,0.571      c-0.462,3.22-0.214,7.079,0.025,10.811c0.413,6.421,0.803,12.486-2.163,15.649c-1.339,1.428-3.212,2.122-5.726,2.123      C87.561,84.744,87.56,84.744,87.559,84.744z M86.626,83.711c0.322,0.021,0.635,0.033,0.933,0.033c0.001,0,0.002,0,0.002,0      c2.223-0.001,3.857-0.592,4.997-1.807c2.669-2.848,2.293-8.703,1.895-14.902c-0.229-3.567-0.466-7.25-0.092-10.445H80.4V23.932      l-0.821,0.002c-2.502,0-4.658-0.036-6.706-0.069c-1.845-0.03-3.601-0.059-5.443-0.059c-2.151,0-4.127,0.04-6.219,0.125      C47.6,24.499,44.661,35.562,41.258,48.372c-0.543,2.046-1.105,4.161-1.719,6.239l-0.208,0.709      c-3.115,10.593-6.062,20.613-7.992,28.34h2.889c0.01-2.018,0.691-3.789,1.983-5.149c1.564-1.646,3.926-2.591,6.48-2.591      c2.491,0,4.781,0.913,6.284,2.506c1.284,1.36,1.95,3.162,1.94,5.234h13.698c-0.981-4.714,0.401-7.758,1.771-9.503      c2.023-2.578,5.454-4.117,9.179-4.117c3.706,0,7.138,1.53,9.18,4.093C86.722,76.616,87.369,79.918,86.626,83.711z" fill="#337ab7"/>
			</g>
			<g>
				<path d="M53.835,64.69H39.75l0.178-0.635c0.531-1.892,1.092-3.753,1.652-5.614c1.024-3.4,2.083-6.918,2.933-10.555l0.101-0.433      l0.441,0.049c1.598,0.18,2.472,1.399,3.243,2.475c0.81,1.128,1.496,2.062,2.825,1.839c0.468-0.081,1.056-0.257,1.205-0.643      c0.108-0.279,0.108-0.979-1.104-2.538c-0.97-1.223-2.32-2.521-3.404-3.562c-0.738-0.709-1.321-1.27-1.598-1.629l-0.157-0.204      l0.075-0.246C48.256,36,50.653,28.071,59.237,26.984c1.286-0.163,2.725-0.242,4.398-0.242c2.115,0,4.372,0.128,6.556,0.251      c2.201,0.125,4.477,0.253,6.659,0.257l0.499,0.001V56.59h-5.507l-0.075-0.411c-0.131-0.724,0.265-1.34,0.647-1.937      c0.294-0.457,0.598-0.931,0.705-1.478c0.737-3.809,0.839-9.178-1.303-11.775c-0.935-1.132-2.166-1.594-3.819-1.403      c-1.703,0.196-2.877,1.291-4.119,2.449c-1.188,1.109-2.419,2.256-4.185,2.672c-0.76,0.178-1.531,0.202-2.186,0.202l-1.186-0.011      c-1.783,0-2.422,0.267-2.453,1.763c-0.008,0.505,0.145,0.935,0.451,1.274c0.636,0.709,1.961,1.115,3.636,1.115      c2.193,0,4.512-0.72,5.279-1.64l0.377-0.453l0.386,0.446c0.526,0.61,0.46,1.627,0.396,2.61      c-0.033,0.505-0.067,1.027-0.011,1.415l0.077,0.532l-0.536,0.039c-1.107,0.078-2.33,0.04-3.555-0.002      c-0.698-0.022-1.397-0.046-2.073-0.046c-1.321,0-2.949,0.08-3.977,0.689c-0.634,1.81-0.544,4.448-0.456,7.003      c0.053,1.548,0.107,3.149,0.004,4.583L53.835,64.69z M41.071,63.69h11.828c0.061-1.264,0.013-2.659-0.034-4.013      c-0.093-2.727-0.189-5.546,0.578-7.547l0.057-0.147l0.131-0.088c1.233-0.832,3.051-0.945,4.667-0.945      c0.687,0,1.396,0.024,2.106,0.047c1.007,0.033,2.014,0.069,2.951,0.03c-0.006-0.349,0.019-0.719,0.042-1.08      c0.028-0.447,0.062-0.962,0.019-1.357c-1.314,0.96-3.604,1.458-5.459,1.458c-1.987,0-3.542-0.513-4.379-1.445      c-0.48-0.531-0.72-1.192-0.708-1.961c0.058-2.745,2.184-2.745,3.453-2.745l1.186,0.011c0.598,0,1.297-0.021,1.957-0.175      c1.507-0.355,2.588-1.363,3.731-2.43c1.306-1.218,2.656-2.477,4.686-2.71c2.003-0.233,3.561,0.371,4.706,1.76      c2.363,2.866,2.292,8.58,1.513,12.602c-0.145,0.736-0.517,1.316-0.845,1.828c-0.189,0.294-0.362,0.563-0.451,0.807h3.544V28.247      c-2.054-0.02-4.167-0.14-6.215-0.256c-2.169-0.123-4.412-0.25-6.499-0.25c-1.631,0-3.029,0.077-4.273,0.234      c-7.842,0.993-10.083,8.099-12.185,15.049c0.288,0.319,0.782,0.794,1.337,1.328c1.106,1.063,2.482,2.386,3.497,3.666      c1.191,1.53,1.587,2.646,1.25,3.517c-0.256,0.66-0.918,1.087-1.968,1.267c-1.94,0.338-2.948-1.042-3.808-2.242      c-0.62-0.865-1.209-1.687-2.111-1.973c-0.836,3.499-1.853,6.874-2.836,10.143C42.042,60.377,41.547,62.023,41.071,63.69z" fill="#337ab7"/>
			</g>
			<g>
				<path d="M62.23,64.69h-4.24v-8.609l0.546,0.051c0.349,0.034,0.745,0.014,1.14-0.001c0.248-0.011,0.494-0.021,0.73-0.021      c0.558,0,1.188,0.047,1.633,0.396l0.191,0.15V64.69z M58.99,63.69h2.24v-6.491c-0.275-0.089-0.672-0.089-0.824-0.089      c-0.223,0-0.456,0.01-0.689,0.02c-0.245,0.01-0.49,0.02-0.727,0.02V63.69z" fill="#337ab7"/>
			</g>
		</g>
	</g>
	<g>
		<path fill-rule="evenodd" clip-rule="evenodd" d="M68.755,29.372c2.316-0.276,4.528,0.833,4.854,3.507    c0.912,7.46-10.376,6.03-8.635-0.809C65.244,31.02,66.35,29.659,68.755,29.372z" fill="#337ab7"/>
	</g>
	<g>
		<path fill-rule="evenodd" clip-rule="evenodd" d="M73.879,74.177c10.039-2.182,11.485,12.071,3.781,14.036    C69.099,90.395,63.884,76.35,73.879,74.177z" fill="#337ab7"/>
	</g>
	<g>
		<path fill-rule="evenodd" clip-rule="evenodd" d="M41.22,80.114c3.381-1.013,5.923,1.009,5.669,4.319    c-0.461,6.06-9.946,4.316-8.367-1.89C38.692,81.886,39.576,80.606,41.22,80.114z" fill="#337ab7"/>
	</g>
	<g>
		
			<rect x="26.952" y="28.445" transform="matrix(0.96 0.28 -0.28 0.96 10.3012 -7.3539)" fill="#337ab7" width="7.884" height="7.876"/>
	</g>
	<g>
		<polygon fill="#337ab7" points="29.566,51.027 18.367,47.76 21.63,36.567 32.831,39.828   "/>
	</g>
	<g>
		
			<rect x="15.354" y="53.105" transform="matrix(0.9601 0.2798 -0.2798 0.9601 17.3345 -3.574)" fill="#337ab7" width="11.666" height="11.661"/>
	</g>
	<g>
		
			<rect x="5.487" y="66.065" transform="matrix(0.9601 0.2797 -0.2797 0.9601 20.1396 -1.2878)" fill="#337ab7" width="18.191" height="7.724"/>
	</g>
	<g>
		<polygon fill="#337ab7" points="12.095,62.358 7.686,61.076 10.946,49.877 15.356,51.165   "/>
	</g>
</g>
</svg>