<svg xmlns="http://www.w3.org/2000/svg" xmlns:xlink="http://www.w3.org/1999/xlink" version="1.1" id="Layer_1" x="0px" y="0px" width="83.333px" height="98px" viewBox="0 0 83.333 98" enable-background="new 0 0 83.333 98" xml:space="preserve">
	<path d="M83.24,73.621c-0.415-1.666-2.107-2.683-3.776-2.269l-29.268,7.281c-0.107,0.026-0.204,0.072-0.306,0.109   c0.869,1.824,1.389,3.842,1.484,5.975c0.108-0.015,0.216-0.013,0.325-0.04l29.268-7.279C82.638,76.982,83.655,75.292,83.24,73.621z   " fill="#337ab7"/>
	<path d="M29.168,71.368c1.828-0.867,3.85-1.389,5.985-1.482c-0.016-0.11-0.02-0.22-0.047-0.33L20.507,10.865L4.832,0.516   C3.395-0.433,1.464-0.036,0.515,1.401c-0.946,1.434-0.552,3.366,0.883,4.315l13.65,9.011L29.063,71.06   C29.091,71.168,29.133,71.268,29.168,71.368z" fill="#337ab7"/>
	<path d="M53.116,20.906c-0.209-0.821-1.043-1.315-1.865-1.106l-23.746,6.066c-0.819,0.208-1.315,1.043-1.106,1.864l4.215,16.498   c0.209,0.82,1.045,1.315,1.864,1.104l23.746-6.065c0.821-0.208,1.315-1.042,1.106-1.862L53.116,20.906z" fill="#337ab7"/>
	<path d="M23.256,85.416c0-6.953,5.636-12.584,12.585-12.584l0,0c6.952,0,12.586,5.631,12.589,12.584l0,0   C48.427,92.367,42.793,98,35.841,98l0,0C28.892,98,23.256,92.367,23.256,85.416L23.256,85.416z M25.927,85.416   c0.008,5.474,4.438,9.903,9.915,9.914l0,0c5.476-0.011,9.906-4.44,9.916-9.914l0,0c-0.01-5.477-4.44-9.905-9.916-9.917l0,0   C30.364,75.511,25.935,79.939,25.927,85.416L25.927,85.416z" fill="#337ab7"/>
	<path d="M82.849,65.877l-6.935-27.153c-0.345-1.351-1.718-2.166-3.069-1.821l-39.082,9.982c-1.349,0.345-2.165,1.72-1.82,3.07   l5.064,19.82c5.121,0.377,9.548,3.202,12.132,7.316l31.891-8.146C82.38,68.602,83.194,67.227,82.849,65.877z" fill="#337ab7"/>
	<path d="M29.196,85.414c0-3.669,2.977-6.644,6.645-6.644l0,0c3.669,0,6.643,2.975,6.646,6.644l0,0   c-0.003,3.67-2.976,6.644-6.646,6.644l0,0C32.173,92.058,29.196,89.084,29.196,85.414L29.196,85.414z M30.977,85.414   c0.006,2.69,2.18,4.861,4.865,4.864l0,0c2.688-0.003,4.861-2.174,4.865-4.864l0,0c-0.003-2.685-2.177-4.86-4.865-4.864l0,0   C33.156,80.554,30.982,82.729,30.977,85.414L30.977,85.414z" fill="#337ab7"/>
</svg>