<svg xmlns="http://www.w3.org/2000/svg" xmlns:xlink="http://www.w3.org/1999/xlink" version="1.1" id="Layer_1" width="52.267" height="52.165" viewBox="0 0 52.267 52.165" overflow="visible" enable-background="new 0 0 52.267 52.165" xml:space="preserve">
	<path d="M48.854,26.082c0-0.28-0.011-0.558-0.021-0.836l-0.921-0.637l0.833-0.747c-0.142-1.461-0.425-2.881-0.83-4.247    l-1.027-0.38l0.607-0.909c-0.501-1.378-1.131-2.692-1.876-3.931l-1.061-0.109l0.35-0.999c-0.828-1.213-1.771-2.34-2.812-3.368    l-1.024,0.153l0.088-1.024c-1.102-0.973-2.3-1.84-3.576-2.586l-0.936,0.395L36.48,5.858c-1.306-0.669-2.684-1.215-4.121-1.624    l-0.8,0.609l-0.406-0.917c-1.422-0.321-2.895-0.508-4.404-0.548l-0.615,0.779l-0.615-0.779c-1.51,0.04-2.982,0.227-4.405,0.548    l-0.406,0.917l-0.8-0.609c-1.437,0.409-2.814,0.954-4.119,1.623l-0.167,0.999l-0.936-0.396c-1.277,0.747-2.475,1.614-3.577,2.587    l0.088,1.024l-1.024-0.153c-1.042,1.028-1.984,2.156-2.813,3.369l0.35,0.998l-1.06,0.109c-0.745,1.238-1.375,2.553-1.875,3.931    l0.606,0.909l-1.026,0.379c-0.405,1.367-0.688,2.787-0.83,4.248l0.833,0.747l-0.921,0.637c-0.01,0.278-0.021,0.556-0.021,0.836    c0,1.174,0.089,2.326,0.261,3.452L4.7,30.067l-0.759,0.876c0.306,1.405,0.739,2.763,1.292,4.058L6.39,35.27l-0.53,1.063    c0.642,1.268,1.398,2.467,2.257,3.584l1.204-0.027L9.066,41.07c0.929,1.057,1.954,2.025,3.062,2.895l1.18-0.332l0.05,1.236    c1.149,0.783,2.375,1.46,3.662,2.025l1.081-0.627l0.36,1.202c1.297,0.466,2.647,0.815,4.041,1.04l0.897-0.882l0.647,1.074    c0.688,0.063,1.383,0.1,2.087,0.1s1.399-0.037,2.088-0.1l0.647-1.074l0.896,0.881c1.394-0.224,2.743-0.573,4.04-1.038l0.36-1.203    l1.081,0.627c1.287-0.564,2.514-1.242,3.663-2.025l0.049-1.236l1.18,0.332c1.108-0.869,2.134-1.839,3.063-2.896l-0.253-1.181    l1.203,0.027c0.858-1.117,1.614-2.315,2.257-3.583l-0.531-1.063l1.157-0.269c0.553-1.295,0.986-2.652,1.292-4.058l-0.759-0.876    l1.025-0.534C48.765,28.408,48.854,27.256,48.854,26.082z M26.134,39.708c-7.693,0-13.931-6.236-13.931-13.93    s6.237-13.93,13.931-13.93s13.93,6.236,13.93,13.93S33.827,39.708,26.134,39.708z" fill="#337ab7"/>
	<path d="M13.42,25.815c0,6.951,5.655,12.605,12.605,12.605c6.951,0,12.606-5.654,12.606-12.605S32.977,13.21,26.025,13.21   C19.075,13.21,13.42,18.864,13.42,25.815z M14.42,25.815c0-6.399,5.206-11.605,11.605-11.605s11.606,5.206,11.606,11.605   s-5.207,11.605-11.606,11.605S14.42,32.215,14.42,25.815z" fill="#337ab7"/>
</svg>